<?xml version="1.0" encoding="UTF-8" standalone="no"?>
<svg
   xmlns:dc="http://purl.org/dc/elements/1.1/"
   xmlns:cc="http://creativecommons.org/ns#"
   xmlns:rdf="http://www.w3.org/1999/02/22-rdf-syntax-ns#"
   xmlns:svg="http://www.w3.org/2000/svg"
   xmlns="http://www.w3.org/2000/svg"
   xmlns:sodipodi="http://sodipodi.sourceforge.net/DTD/sodipodi-0.dtd"
   xmlns:inkscape="http://www.inkscape.org/namespaces/inkscape"
   viewBox="0 0 191.99999 192"
   version="1.1"
   id="svg823"
   sodipodi:docname="guitar-logo-192.svg"
   inkscape:version="0.92.3 (2405546, 2018-03-11)"
   width="192"
   height="192">
  <metadata
     id="metadata829">
    <rdf:RDF>
      <cc:Work
         rdf:about="">
        <dc:format>image/svg+xml</dc:format>
        <dc:type
           rdf:resource="http://purl.org/dc/dcmitype/StillImage" />
        <dc:title></dc:title>
      </cc:Work>
    </rdf:RDF>
  </metadata>
  <defs
     id="defs827" />
  <sodipodi:namedview
     pagecolor="#ffffff"
     bordercolor="#666666"
     borderopacity="1"
     objecttolerance="10"
     gridtolerance="10"
     guidetolerance="10"
     inkscape:pageopacity="0"
     inkscape:pageshadow="2"
     inkscape:window-width="1920"
     inkscape:window-height="1001"
     id="namedview825"
     showgrid="false"
     inkscape:zoom="1.9195105"
     inkscape:cx="235.74654"
     inkscape:cy="112.45902"
     inkscape:window-x="-9"
     inkscape:window-y="-9"
     inkscape:window-maximized="1"
     inkscape:current-layer="svg823"
     showguides="true"
     inkscape:guide-bbox="true" />
  <g
     id="g950"
     transform="matrix(0,-0.43779857,0.43779857,0,142.2334,279.53263)"
     inkscape:export-filename="C:\Users\alore\Documents\Toychest\JavaScript\ReactJS\react-guitar\public\guitar-logo192.png"
     inkscape:export-xdpi="96"
     inkscape:export-ydpi="96">
    <path
       inkscape:connector-curvature="0"
       id="path939"
       d="M 612.47635,-208.55653 H 227.52519 a 217.76387,217.76387 0 0 0 -14.10744,33.22655 h 413.06252 a 217.76387,217.76387 0 0 0 -14.00392,-33.22655 z"
       style="opacity:1;fill:#ff7f2a;fill-opacity:1;stroke:none;stroke-width:5;stroke-miterlimit:4;stroke-dasharray:none;stroke-opacity:1" />
    <path
       inkscape:connector-curvature="0"
       id="path935"
       d="m 628.73026,-168.55654 -417.47851,2e-5 a 217.76387,217.76387 0 0 0 -6.92969,33.22655 h 431.32813 a 217.76387,217.76387 0 0 0 -6.91993,-33.22657 z"
       style="opacity:1;fill:#ff6600;fill-opacity:1;stroke:none;stroke-width:5;stroke-miterlimit:4;stroke-dasharray:none;stroke-opacity:1" />
    <path
       inkscape:connector-curvature="0"
       id="path931"
       d="M 636.47245,-128.55653 H 203.3162 a 217.76387,217.76387 0 0 0 -1.07813,21.5625 217.76387,217.76387 0 0 0 0.4121,11.664062 l 434.53126,-1e-5 a 217.76387,217.76387 0 0 0 0.58398,-11.664042 217.76387,217.76387 0 0 0 -1.29296,-21.56251 z"
       style="opacity:1;fill:#d45500;fill-opacity:1;stroke:none;stroke-width:5;stroke-miterlimit:4;stroke-dasharray:none;stroke-opacity:1" />
    <path
       inkscape:connector-curvature="0"
       id="path927"
       d="m 636.84354,-88.556538 -433.6914,1e-5 a 217.76387,217.76387 0 0 0 5.54296,33.22656 l 422.584,-10e-6 a 217.76387,217.76387 0 0 0 5.56444,-33.22656 z"
       style="opacity:1;fill:#aa4400;fill-opacity:1;stroke:none;stroke-width:5;stroke-miterlimit:4;stroke-dasharray:none;stroke-opacity:1" />
    <path
       inkscape:connector-curvature="0"
       id="path923"
       d="m 629.55057,-48.556528 -419.31446,-1e-5 a 217.76387,217.76387 0 0 0 12.50979,33.22657 l 394.51561,-1e-5 a 217.76387,217.76387 0 0 0 12.28906,-33.22655 z"
       style="opacity:1;fill:#803300;fill-opacity:1;stroke:none;stroke-width:5;stroke-miterlimit:4;stroke-dasharray:none;stroke-opacity:1" />
    <path
       inkscape:connector-curvature="0"
       id="path919"
       d="M 613.98807,-8.5565278 H 225.77714 A 217.76387,217.76387 0 0 0 420.00174,110.76964 217.76387,217.76387 0 0 0 613.98807,-8.5565278 Z"
       style="opacity:1;fill:#552200;fill-opacity:1;stroke:none;stroke-width:5;stroke-miterlimit:4;stroke-dasharray:none;stroke-opacity:1" />
    <path
       inkscape:connector-curvature="0"
       id="path890"
       d="M 231.30838,-215.32997 H 608.5916 A 217.76387,217.76387 0 0 0 420.00174,-324.7577 217.76387,217.76387 0 0 0 231.30838,-215.32997 Z"
       style="opacity:1;fill:#ff9955;fill-opacity:1;stroke:none;stroke-width:5;stroke-miterlimit:4;stroke-dasharray:none;stroke-opacity:1" />
  </g>
</svg>
